<mxfile host="app.diagrams.net" modified="2023-12-06T22:37:08.727Z" agent="Mozilla/5.0 (Windows NT 10.0; Win64; x64) AppleWebKit/537.36 (KHTML, like Gecko) Chrome/119.0.0.0 Safari/537.36" etag="ReBbe-6gt_LEGA2GjzCz" version="22.1.7" type="device">
  <diagram name="Страница-1" id="8dOmQA-U-k6sLpznLG6M">
    <mxGraphModel dx="1247" dy="1818" grid="1" gridSize="10" guides="1" tooltips="1" connect="1" arrows="1" fold="1" page="1" pageScale="1" pageWidth="827" pageHeight="1169" math="0" shadow="0">
      <root>
        <mxCell id="0" />
        <mxCell id="1" parent="0" />
        <mxCell id="wbnvh7hkkzxUcQr9gCt9-21" style="edgeStyle=orthogonalEdgeStyle;rounded=0;orthogonalLoop=1;jettySize=auto;html=1;entryX=0.5;entryY=0;entryDx=0;entryDy=0;" edge="1" parent="1" source="wbnvh7hkkzxUcQr9gCt9-1" target="wbnvh7hkkzxUcQr9gCt9-9">
          <mxGeometry relative="1" as="geometry" />
        </mxCell>
        <mxCell id="wbnvh7hkkzxUcQr9gCt9-22" style="edgeStyle=orthogonalEdgeStyle;rounded=0;orthogonalLoop=1;jettySize=auto;html=1;exitX=0;exitY=1;exitDx=0;exitDy=0;entryX=0.5;entryY=0;entryDx=0;entryDy=0;" edge="1" parent="1" source="wbnvh7hkkzxUcQr9gCt9-1" target="wbnvh7hkkzxUcQr9gCt9-5">
          <mxGeometry relative="1" as="geometry" />
        </mxCell>
        <mxCell id="wbnvh7hkkzxUcQr9gCt9-23" style="edgeStyle=orthogonalEdgeStyle;rounded=0;orthogonalLoop=1;jettySize=auto;html=1;exitX=1;exitY=1;exitDx=0;exitDy=0;entryX=0.5;entryY=0;entryDx=0;entryDy=0;" edge="1" parent="1" source="wbnvh7hkkzxUcQr9gCt9-1" target="wbnvh7hkkzxUcQr9gCt9-11">
          <mxGeometry relative="1" as="geometry" />
        </mxCell>
        <mxCell id="wbnvh7hkkzxUcQr9gCt9-1" value="&lt;br&gt;&lt;br&gt;index.html&lt;br&gt;" style="rounded=0;whiteSpace=wrap;html=1;" vertex="1" parent="1">
          <mxGeometry x="290" y="-960" width="160" height="80" as="geometry" />
        </mxCell>
        <mxCell id="wbnvh7hkkzxUcQr9gCt9-2" value="&lt;b&gt;НАЧАЛО&lt;/b&gt;" style="text;html=1;strokeColor=none;fillColor=none;align=center;verticalAlign=middle;whiteSpace=wrap;rounded=0;" vertex="1" parent="1">
          <mxGeometry x="320" y="-950" width="100" height="20" as="geometry" />
        </mxCell>
        <mxCell id="wbnvh7hkkzxUcQr9gCt9-4" value="&lt;br&gt;&lt;br&gt;architecture.html" style="rounded=0;whiteSpace=wrap;html=1;" vertex="1" parent="1">
          <mxGeometry x="100" y="-800" width="160" height="80" as="geometry" />
        </mxCell>
        <mxCell id="wbnvh7hkkzxUcQr9gCt9-5" value="&lt;b&gt;АРХИТЕКТУРА&lt;/b&gt;" style="text;html=1;strokeColor=none;fillColor=none;align=center;verticalAlign=middle;whiteSpace=wrap;rounded=0;" vertex="1" parent="1">
          <mxGeometry x="130" y="-790" width="100" height="20" as="geometry" />
        </mxCell>
        <mxCell id="wbnvh7hkkzxUcQr9gCt9-8" value="&lt;br&gt;&lt;br&gt;features.html" style="rounded=0;whiteSpace=wrap;html=1;" vertex="1" parent="1">
          <mxGeometry x="290" y="-800" width="160" height="80" as="geometry" />
        </mxCell>
        <mxCell id="wbnvh7hkkzxUcQr9gCt9-9" value="&lt;b&gt;ПРЕДИМСТВА&lt;/b&gt;" style="text;html=1;strokeColor=none;fillColor=none;align=center;verticalAlign=middle;whiteSpace=wrap;rounded=0;" vertex="1" parent="1">
          <mxGeometry x="320" y="-790" width="100" height="20" as="geometry" />
        </mxCell>
        <mxCell id="wbnvh7hkkzxUcQr9gCt9-10" value="&lt;br&gt;&lt;br&gt;applications.html" style="rounded=0;whiteSpace=wrap;html=1;" vertex="1" parent="1">
          <mxGeometry x="470" y="-800" width="160" height="80" as="geometry" />
        </mxCell>
        <mxCell id="wbnvh7hkkzxUcQr9gCt9-11" value="&lt;b&gt;БЪДЕЩИ РАЗВИТИЯ&lt;/b&gt;" style="text;html=1;strokeColor=none;fillColor=none;align=center;verticalAlign=middle;whiteSpace=wrap;rounded=0;" vertex="1" parent="1">
          <mxGeometry x="500" y="-790" width="100" height="20" as="geometry" />
        </mxCell>
        <mxCell id="wbnvh7hkkzxUcQr9gCt9-32" value="" style="endArrow=none;html=1;rounded=0;" edge="1" parent="1">
          <mxGeometry width="50" height="50" relative="1" as="geometry">
            <mxPoint x="450" y="-760.4300000000001" as="sourcePoint" />
            <mxPoint x="470" y="-760.4300000000001" as="targetPoint" />
          </mxGeometry>
        </mxCell>
        <mxCell id="wbnvh7hkkzxUcQr9gCt9-35" value="" style="endArrow=none;html=1;rounded=0;entryX=1;entryY=0.5;entryDx=0;entryDy=0;" edge="1" parent="1" target="wbnvh7hkkzxUcQr9gCt9-4">
          <mxGeometry width="50" height="50" relative="1" as="geometry">
            <mxPoint x="290" y="-760" as="sourcePoint" />
            <mxPoint x="480" y="-750.4300000000001" as="targetPoint" />
          </mxGeometry>
        </mxCell>
      </root>
    </mxGraphModel>
  </diagram>
</mxfile>
